<svg width="100" height="100" viewBox="0 0 100 100" fill="none" xmlns="http://www.w3.org/2000/svg">
<g id="Frame 1">
<rect width="100" height="100" fill="white"/>
<g id="Group 1">
<rect id="Rectangle 1" x="17.5" y="10.5" width="54" height="65" rx="2.5" stroke="black" stroke-width="3"/>
<path id="Union" fill-rule="evenodd" clip-rule="evenodd" d="M74.0199 59.105C76.7711 57.7018 78.6571 54.8273 78.6571 51.5091C78.6571 46.8096 74.8742 43 70.2078 43C65.5413 43 61.7584 46.8096 61.7584 51.5091C61.7584 54.7943 63.6071 57.6447 66.314 59.0627C64.9584 59.321 63.6296 59.7194 62.3489 60.2536C59.9044 61.2734 57.6832 62.768 55.8123 64.6522C53.9413 66.5363 52.4572 68.7732 51.4447 71.235C50.686 73.0796 50.2031 75.0235 50.0087 77.0032C49.9008 78.1025 50.8064 79 51.911 79L70.0593 79H88.2077C89.3123 79 90.2179 78.1025 90.1099 77.0032C89.9155 75.0235 89.4327 73.0796 88.674 71.235C87.6615 68.7732 86.1774 66.5363 84.3064 64.6522C82.4355 62.768 80.2143 61.2734 77.7698 60.2536C76.5569 59.7477 75.3009 59.3636 74.0199 59.105Z" fill="white"/>
<g id="Ellipse 1">
<mask id="path-3-inside-1_1_2" fill="white">
<path d="M83 76.5C84.1046 76.5 85.0133 75.6009 84.8711 74.5055C84.696 73.1555 84.3433 71.8315 83.8201 70.5684C83.0412 68.6879 81.8995 66.9792 80.4602 65.5398C79.0208 64.1005 77.3121 62.9588 75.4316 62.1799C73.551 61.4009 71.5355 61 69.5 61C67.4645 61 65.449 61.4009 63.5684 62.1799C61.6879 62.9588 59.9792 64.1005 58.5398 65.5398C57.1005 66.9792 55.9588 68.6879 55.1799 70.5684C54.6567 71.8315 54.304 73.1555 54.1289 74.5055C53.9867 75.6009 54.8954 76.5 56 76.5L69.5 76.5H83Z"/>
</mask>
<path d="M83 76.5C84.1046 76.5 85.0133 75.6009 84.8711 74.5055C84.696 73.1555 84.3433 71.8315 83.8201 70.5684C83.0412 68.6879 81.8995 66.9792 80.4602 65.5398C79.0208 64.1005 77.3121 62.9588 75.4316 62.1799C73.551 61.4009 71.5355 61 69.5 61C67.4645 61 65.449 61.4009 63.5684 62.1799C61.6879 62.9588 59.9792 64.1005 58.5398 65.5398C57.1005 66.9792 55.9588 68.6879 55.1799 70.5684C54.6567 71.8315 54.304 73.1555 54.1289 74.5055C53.9867 75.6009 54.8954 76.5 56 76.5L69.5 76.5H83Z" stroke="black" stroke-width="6" mask="url(#path-3-inside-1_1_2)"/>
</g>
<circle id="Ellipse 2" cx="69.5" cy="53.5" r="5" stroke="black" stroke-width="3"/>
<line id="Line 1" x1="25" y1="21.5" x2="64" y2="21.5" stroke="black" stroke-width="3"/>
<line id="Line 2" x1="25" y1="31.5" x2="64" y2="31.5" stroke="black" stroke-width="3"/>
<line id="Line 3" x1="25" y1="41.5" x2="64" y2="41.5" stroke="black" stroke-width="3"/>
<line id="Line 4" x1="25" y1="51.5" x2="51" y2="51.5" stroke="black" stroke-width="3"/>
</g>
</g>
</svg>
